<mxfile host="Electron" agent="Mozilla/5.0 (Macintosh; Intel Mac OS X 10_15_7) AppleWebKit/537.36 (KHTML, like Gecko) draw.io/24.7.8 Chrome/128.0.6613.36 Electron/32.0.1 Safari/537.36" version="24.7.8">
  <diagram name="Page-1" id="jHINZmKcey3rdpf554NU">
    <mxGraphModel dx="1036" dy="666" grid="1" gridSize="10" guides="1" tooltips="1" connect="1" arrows="1" fold="1" page="1" pageScale="1" pageWidth="827" pageHeight="1169" math="0" shadow="0">
      <root>
        <mxCell id="0" />
        <mxCell id="1" parent="0" />
        <mxCell id="XTBzpI1Qbm_Vmd8OKEiI-47" value="" style="endArrow=none;dashed=1;html=1;dashPattern=1 3;strokeWidth=2;rounded=0;movable=0;resizable=0;rotatable=0;deletable=0;editable=0;locked=1;connectable=0;" parent="1" edge="1">
          <mxGeometry width="50" height="50" relative="1" as="geometry">
            <mxPoint x="172.38" y="764.5" as="sourcePoint" />
            <mxPoint x="620" y="765" as="targetPoint" />
          </mxGeometry>
        </mxCell>
        <mxCell id="WyfGocU0w-fGMWGtSDuY-56" value="D" style="rounded=0;whiteSpace=wrap;html=1;fillColor=#CC0000;gradientColor=#FF8000;strokeColor=#33001A;gradientDirection=east;movable=1;resizable=1;rotatable=1;deletable=1;editable=1;locked=0;connectable=1;" vertex="1" parent="1">
          <mxGeometry x="512.38" y="760" width="20" height="20" as="geometry" />
        </mxCell>
        <mxCell id="5wAvHKpj9pkWP0bOrU0t-28" value="" style="rounded=0;whiteSpace=wrap;html=1;fillColor=#f5f5f5;fontColor=#333333;strokeColor=#666666;movable=0;resizable=0;rotatable=0;deletable=0;editable=0;locked=1;connectable=0;" parent="1" vertex="1">
          <mxGeometry x="80" y="120" width="680" height="480" as="geometry" />
        </mxCell>
        <mxCell id="5wAvHKpj9pkWP0bOrU0t-8" style="edgeStyle=orthogonalEdgeStyle;rounded=0;orthogonalLoop=1;jettySize=auto;html=1;shape=flexArrow;fillColor=#ffcd28;gradientColor=#ffa500;strokeColor=#d79b00;" parent="1" source="5wAvHKpj9pkWP0bOrU0t-1" edge="1">
          <mxGeometry relative="1" as="geometry">
            <mxPoint x="180" y="320" as="targetPoint" />
          </mxGeometry>
        </mxCell>
        <mxCell id="5wAvHKpj9pkWP0bOrU0t-1" value="CPU Core 1&lt;div&gt;&lt;br&gt;&lt;/div&gt;&lt;div&gt;&lt;br&gt;&lt;/div&gt;&lt;div&gt;&lt;br&gt;&lt;/div&gt;&lt;div&gt;&lt;br&gt;&lt;/div&gt;" style="rounded=0;whiteSpace=wrap;html=1;fillColor=#dae8fc;strokeColor=#6c8ebf;" parent="1" vertex="1">
          <mxGeometry x="120" y="160" width="120" height="120" as="geometry" />
        </mxCell>
        <mxCell id="5wAvHKpj9pkWP0bOrU0t-2" value="CPU Core 2&lt;div&gt;&lt;br&gt;&lt;/div&gt;&lt;div&gt;&lt;br&gt;&lt;/div&gt;&lt;div&gt;&lt;br&gt;&lt;/div&gt;&lt;div&gt;&lt;br&gt;&lt;/div&gt;" style="rounded=0;whiteSpace=wrap;html=1;fillColor=#dae8fc;strokeColor=#6c8ebf;" parent="1" vertex="1">
          <mxGeometry x="280" y="160" width="120" height="120" as="geometry" />
        </mxCell>
        <mxCell id="5wAvHKpj9pkWP0bOrU0t-3" value="CPU Core 3&lt;div&gt;&lt;br&gt;&lt;/div&gt;&lt;div&gt;&lt;br&gt;&lt;/div&gt;&lt;div&gt;&lt;br&gt;&lt;/div&gt;&lt;div&gt;&lt;br&gt;&lt;/div&gt;" style="rounded=0;whiteSpace=wrap;html=1;fillColor=#dae8fc;strokeColor=#6c8ebf;" parent="1" vertex="1">
          <mxGeometry x="440" y="160" width="120" height="120" as="geometry" />
        </mxCell>
        <mxCell id="5wAvHKpj9pkWP0bOrU0t-5" value="L1 Cache" style="rounded=0;whiteSpace=wrap;html=1;fillColor=#f8cecc;strokeColor=#b85450;" parent="1" vertex="1">
          <mxGeometry x="120" y="320" width="120" height="40" as="geometry" />
        </mxCell>
        <mxCell id="5wAvHKpj9pkWP0bOrU0t-6" value="L2 Cache&lt;div&gt;(private)&lt;/div&gt;" style="rounded=0;whiteSpace=wrap;html=1;fillColor=#ffe6cc;strokeColor=#d79b00;" parent="1" vertex="1">
          <mxGeometry x="120" y="360" width="120" height="80" as="geometry" />
        </mxCell>
        <mxCell id="5wAvHKpj9pkWP0bOrU0t-7" value="" style="rounded=0;whiteSpace=wrap;html=1;fillColor=#fff2cc;strokeColor=#d6b656;" parent="1" vertex="1">
          <mxGeometry x="120" y="480" width="600" height="80" as="geometry" />
        </mxCell>
        <mxCell id="5wAvHKpj9pkWP0bOrU0t-10" style="edgeStyle=orthogonalEdgeStyle;rounded=0;orthogonalLoop=1;jettySize=auto;html=1;entryX=0.1;entryY=0.025;entryDx=0;entryDy=0;entryPerimeter=0;shape=flexArrow;fillColor=#ffcd28;gradientColor=#ffa500;strokeColor=#d79b00;" parent="1" source="5wAvHKpj9pkWP0bOrU0t-6" target="5wAvHKpj9pkWP0bOrU0t-7" edge="1">
          <mxGeometry relative="1" as="geometry" />
        </mxCell>
        <mxCell id="5wAvHKpj9pkWP0bOrU0t-11" style="edgeStyle=orthogonalEdgeStyle;rounded=0;orthogonalLoop=1;jettySize=auto;html=1;entryX=0.5;entryY=0;entryDx=0;entryDy=0;shape=flexArrow;fillColor=#d5e8d4;gradientColor=#97d077;strokeColor=#82b366;" parent="1" target="5wAvHKpj9pkWP0bOrU0t-13" edge="1">
          <mxGeometry relative="1" as="geometry">
            <mxPoint x="340" y="280" as="sourcePoint" />
          </mxGeometry>
        </mxCell>
        <mxCell id="5wAvHKpj9pkWP0bOrU0t-13" value="&lt;div&gt;L1 Cache&lt;br&gt;&lt;/div&gt;" style="rounded=0;whiteSpace=wrap;html=1;fillColor=#f8cecc;strokeColor=#b85450;" parent="1" vertex="1">
          <mxGeometry x="280" y="320" width="120" height="40" as="geometry" />
        </mxCell>
        <mxCell id="5wAvHKpj9pkWP0bOrU0t-14" value="L2 Cache&lt;div&gt;(private)&lt;/div&gt;" style="rounded=0;whiteSpace=wrap;html=1;fillColor=#ffe6cc;strokeColor=#d79b00;" parent="1" vertex="1">
          <mxGeometry x="280" y="360" width="120" height="80" as="geometry" />
        </mxCell>
        <mxCell id="5wAvHKpj9pkWP0bOrU0t-15" style="edgeStyle=orthogonalEdgeStyle;rounded=0;orthogonalLoop=1;jettySize=auto;html=1;entryX=0.1;entryY=0.025;entryDx=0;entryDy=0;entryPerimeter=0;shape=flexArrow;fillColor=#d5e8d4;gradientColor=#97d077;strokeColor=#82b366;" parent="1" source="5wAvHKpj9pkWP0bOrU0t-14" edge="1">
          <mxGeometry relative="1" as="geometry">
            <mxPoint x="340" y="482" as="targetPoint" />
          </mxGeometry>
        </mxCell>
        <mxCell id="5wAvHKpj9pkWP0bOrU0t-16" style="edgeStyle=orthogonalEdgeStyle;rounded=0;orthogonalLoop=1;jettySize=auto;html=1;entryX=0.5;entryY=0;entryDx=0;entryDy=0;shape=flexArrow;fillColor=#d5e8d4;gradientColor=#97d077;strokeColor=#82b366;" parent="1" target="5wAvHKpj9pkWP0bOrU0t-18" edge="1">
          <mxGeometry relative="1" as="geometry">
            <mxPoint x="500" y="280" as="sourcePoint" />
          </mxGeometry>
        </mxCell>
        <mxCell id="5wAvHKpj9pkWP0bOrU0t-18" value="L1 Cache" style="rounded=0;whiteSpace=wrap;html=1;fillColor=#f8cecc;strokeColor=#b85450;" parent="1" vertex="1">
          <mxGeometry x="440" y="320" width="120" height="40" as="geometry" />
        </mxCell>
        <mxCell id="5wAvHKpj9pkWP0bOrU0t-19" value="L2 Cache&lt;div&gt;(private)&lt;/div&gt;" style="rounded=0;whiteSpace=wrap;html=1;fillColor=#ffe6cc;strokeColor=#d79b00;" parent="1" vertex="1">
          <mxGeometry x="440" y="360" width="120" height="80" as="geometry" />
        </mxCell>
        <mxCell id="5wAvHKpj9pkWP0bOrU0t-20" style="edgeStyle=orthogonalEdgeStyle;rounded=0;orthogonalLoop=1;jettySize=auto;html=1;entryX=0.1;entryY=0.025;entryDx=0;entryDy=0;entryPerimeter=0;shape=flexArrow;fillColor=#d5e8d4;gradientColor=#97d077;strokeColor=#82b366;" parent="1" source="5wAvHKpj9pkWP0bOrU0t-19" edge="1">
          <mxGeometry relative="1" as="geometry">
            <mxPoint x="500" y="482" as="targetPoint" />
          </mxGeometry>
        </mxCell>
        <mxCell id="5wAvHKpj9pkWP0bOrU0t-30" value="&lt;b&gt;&lt;font style=&quot;font-size: 14px;&quot;&gt;CPU Package&lt;/font&gt;&lt;/b&gt;" style="text;html=1;align=center;verticalAlign=middle;resizable=0;points=[];autosize=1;strokeColor=none;fillColor=none;" parent="1" vertex="1">
          <mxGeometry x="75" y="120" width="110" height="30" as="geometry" />
        </mxCell>
        <mxCell id="5wAvHKpj9pkWP0bOrU0t-58" style="edgeStyle=orthogonalEdgeStyle;rounded=0;orthogonalLoop=1;jettySize=auto;html=1;exitX=0.5;exitY=0;exitDx=0;exitDy=0;entryX=0.25;entryY=1;entryDx=0;entryDy=0;curved=1;fillColor=#d5e8d4;gradientColor=#97d077;strokeColor=#82b366;strokeWidth=2;" parent="1" source="5wAvHKpj9pkWP0bOrU0t-118" target="5wAvHKpj9pkWP0bOrU0t-44" edge="1">
          <mxGeometry relative="1" as="geometry" />
        </mxCell>
        <mxCell id="5wAvHKpj9pkWP0bOrU0t-34" value="4" style="rounded=0;whiteSpace=wrap;html=1;fillColor=#d5e8d4;gradientColor=#97d077;strokeColor=#4D4D4D;" parent="1" vertex="1">
          <mxGeometry x="220" y="510" width="20" height="20" as="geometry" />
        </mxCell>
        <mxCell id="5wAvHKpj9pkWP0bOrU0t-56" style="edgeStyle=orthogonalEdgeStyle;rounded=0;orthogonalLoop=1;jettySize=auto;html=1;entryX=0;entryY=0.25;entryDx=0;entryDy=0;curved=1;exitX=0;exitY=0.5;exitDx=0;exitDy=0;fillColor=#ffcd28;gradientColor=#ffa500;strokeColor=#d79b00;strokeWidth=2;" parent="1" source="5wAvHKpj9pkWP0bOrU0t-35" target="5wAvHKpj9pkWP0bOrU0t-40" edge="1">
          <mxGeometry relative="1" as="geometry">
            <Array as="points">
              <mxPoint x="90" y="250" />
              <mxPoint x="90" y="335" />
            </Array>
          </mxGeometry>
        </mxCell>
        <mxCell id="5wAvHKpj9pkWP0bOrU0t-35" value="&lt;div style=&quot;text-align: left; line-height: 80%;&quot;&gt;&lt;font style=&quot;font-size: 8px;&quot;&gt;Receive&lt;/font&gt;&lt;/div&gt;&lt;div style=&quot;text-align: left; line-height: 80%;&quot;&gt;&lt;span style=&quot;font-size: 8px;&quot;&gt;Parse&lt;/span&gt;&lt;/div&gt;&lt;div style=&quot;text-align: left; line-height: 80%;&quot;&gt;&lt;span style=&quot;font-size: 8px; text-align: left;&quot;&gt;Notify&lt;/span&gt;&lt;/div&gt;" style="rounded=0;whiteSpace=wrap;html=1;fillColor=#f5f5f5;gradientColor=#b3b3b3;strokeColor=#666666;" parent="1" vertex="1">
          <mxGeometry x="140" y="230" width="80" height="40" as="geometry" />
        </mxCell>
        <mxCell id="5wAvHKpj9pkWP0bOrU0t-55" style="edgeStyle=orthogonalEdgeStyle;rounded=0;orthogonalLoop=1;jettySize=auto;html=1;entryX=0.5;entryY=0;entryDx=0;entryDy=0;curved=1;strokeWidth=2;fillColor=#ffcd28;gradientColor=#ffa500;strokeColor=#d79b00;exitX=1;exitY=0.75;exitDx=0;exitDy=0;" parent="1" source="5wAvHKpj9pkWP0bOrU0t-39" target="5wAvHKpj9pkWP0bOrU0t-120" edge="1">
          <mxGeometry relative="1" as="geometry">
            <Array as="points">
              <mxPoint x="250" y="425" />
            </Array>
          </mxGeometry>
        </mxCell>
        <mxCell id="5wAvHKpj9pkWP0bOrU0t-39" value="5" style="rounded=0;whiteSpace=wrap;html=1;fillColor=#ffcd28;gradientColor=#ffa500;strokeColor=#000000;" parent="1" vertex="1">
          <mxGeometry x="130" y="410" width="20" height="20" as="geometry" />
        </mxCell>
        <mxCell id="5wAvHKpj9pkWP0bOrU0t-40" value="5" style="rounded=0;whiteSpace=wrap;html=1;fillColor=#ffcd28;gradientColor=#ffa500;strokeColor=#000000;" parent="1" vertex="1">
          <mxGeometry x="130" y="330" width="20" height="20" as="geometry" />
        </mxCell>
        <mxCell id="5wAvHKpj9pkWP0bOrU0t-42" value="&lt;span style=&quot;font-size: 8px; text-align: left;&quot;&gt;Analyse&lt;/span&gt;" style="rounded=0;whiteSpace=wrap;html=1;fillColor=#f5f5f5;gradientColor=#b3b3b3;strokeColor=#666666;" parent="1" vertex="1">
          <mxGeometry x="297.5" y="230" width="82.5" height="40" as="geometry" />
        </mxCell>
        <mxCell id="5wAvHKpj9pkWP0bOrU0t-125" style="edgeStyle=orthogonalEdgeStyle;rounded=0;orthogonalLoop=1;jettySize=auto;html=1;exitX=0;exitY=0.25;exitDx=0;exitDy=0;entryX=0;entryY=0.5;entryDx=0;entryDy=0;fillColor=#d5e8d4;gradientColor=#97d077;strokeColor=#82b366;strokeWidth=2;curved=1;" parent="1" source="5wAvHKpj9pkWP0bOrU0t-43" target="5wAvHKpj9pkWP0bOrU0t-42" edge="1">
          <mxGeometry relative="1" as="geometry">
            <Array as="points">
              <mxPoint x="250" y="335" />
              <mxPoint x="250" y="250" />
            </Array>
          </mxGeometry>
        </mxCell>
        <mxCell id="5wAvHKpj9pkWP0bOrU0t-43" value="3" style="rounded=0;whiteSpace=wrap;html=1;fillColor=#d5e8d4;gradientColor=#97d077;strokeColor=#000000;" parent="1" vertex="1">
          <mxGeometry x="290" y="330" width="20" height="20" as="geometry" />
        </mxCell>
        <mxCell id="5wAvHKpj9pkWP0bOrU0t-59" style="edgeStyle=orthogonalEdgeStyle;rounded=0;orthogonalLoop=1;jettySize=auto;html=1;exitX=0;exitY=0.25;exitDx=0;exitDy=0;entryX=0;entryY=0.75;entryDx=0;entryDy=0;fillColor=#d5e8d4;gradientColor=#97d077;strokeColor=#82b366;curved=1;strokeWidth=2;" parent="1" source="5wAvHKpj9pkWP0bOrU0t-44" target="5wAvHKpj9pkWP0bOrU0t-43" edge="1">
          <mxGeometry relative="1" as="geometry">
            <Array as="points">
              <mxPoint x="250" y="415" />
              <mxPoint x="250" y="345" />
            </Array>
          </mxGeometry>
        </mxCell>
        <mxCell id="5wAvHKpj9pkWP0bOrU0t-44" value="3" style="rounded=0;whiteSpace=wrap;html=1;fillColor=#d5e8d4;gradientColor=#97d077;strokeColor=#000000;" parent="1" vertex="1">
          <mxGeometry x="290" y="410" width="20" height="20" as="geometry" />
        </mxCell>
        <mxCell id="5wAvHKpj9pkWP0bOrU0t-46" value="Market Data" style="rounded=0;whiteSpace=wrap;html=1;fillColor=#ffcd28;gradientColor=#ffa500;strokeColor=#000000;" parent="1" vertex="1">
          <mxGeometry x="140" y="210" width="80" height="20" as="geometry" />
        </mxCell>
        <mxCell id="5wAvHKpj9pkWP0bOrU0t-47" value="Analysis" style="rounded=0;whiteSpace=wrap;html=1;fillColor=#d5e8d4;gradientColor=#97d077;strokeColor=#000000;" parent="1" vertex="1">
          <mxGeometry x="297.5" y="210" width="82.5" height="20" as="geometry" />
        </mxCell>
        <mxCell id="5wAvHKpj9pkWP0bOrU0t-52" value="" style="endArrow=classic;html=1;rounded=0;exitX=0;exitY=0.75;exitDx=0;exitDy=0;strokeWidth=2;fillColor=#ffcd28;gradientColor=#ffa500;strokeColor=#d79b00;edgeStyle=orthogonalEdgeStyle;curved=1;entryX=0;entryY=0.25;entryDx=0;entryDy=0;" parent="1" source="5wAvHKpj9pkWP0bOrU0t-40" target="5wAvHKpj9pkWP0bOrU0t-39" edge="1">
          <mxGeometry width="50" height="50" relative="1" as="geometry">
            <mxPoint x="450" y="410" as="sourcePoint" />
            <mxPoint x="130" y="420" as="targetPoint" />
            <Array as="points">
              <mxPoint x="90" y="345" />
              <mxPoint x="90" y="415" />
            </Array>
          </mxGeometry>
        </mxCell>
        <mxCell id="5wAvHKpj9pkWP0bOrU0t-117" value="2" style="rounded=0;whiteSpace=wrap;html=1;fillColor=#f5f5f5;gradientColor=#b3b3b3;strokeColor=#4D4D4D;" parent="1" vertex="1">
          <mxGeometry x="180" y="510" width="20" height="20" as="geometry" />
        </mxCell>
        <mxCell id="5wAvHKpj9pkWP0bOrU0t-118" value="3" style="rounded=0;whiteSpace=wrap;html=1;fillColor=#d5e8d4;gradientColor=#97d077;strokeColor=#4D4D4D;" parent="1" vertex="1">
          <mxGeometry x="200" y="510" width="20" height="20" as="geometry" />
        </mxCell>
        <mxCell id="5wAvHKpj9pkWP0bOrU0t-120" value="5" style="rounded=0;whiteSpace=wrap;html=1;fillColor=#ffcd28;gradientColor=#ffa500;strokeColor=#4D4D4D;" parent="1" vertex="1">
          <mxGeometry x="240" y="510" width="20" height="20" as="geometry" />
        </mxCell>
        <mxCell id="5wAvHKpj9pkWP0bOrU0t-121" value="1" style="rounded=0;whiteSpace=wrap;html=1;fillColor=#f5f5f5;gradientColor=#b3b3b3;strokeColor=#4D4D4D;" parent="1" vertex="1">
          <mxGeometry x="160" y="510" width="20" height="20" as="geometry" />
        </mxCell>
        <mxCell id="5wAvHKpj9pkWP0bOrU0t-122" value="6" style="rounded=0;whiteSpace=wrap;html=1;fillColor=#f5f5f5;gradientColor=#b3b3b3;strokeColor=#4D4D4D;" parent="1" vertex="1">
          <mxGeometry x="260" y="510" width="20" height="20" as="geometry" />
        </mxCell>
        <mxCell id="5wAvHKpj9pkWP0bOrU0t-123" value="7" style="rounded=0;whiteSpace=wrap;html=1;fillColor=#f5f5f5;gradientColor=#b3b3b3;strokeColor=#4D4D4D;" parent="1" vertex="1">
          <mxGeometry x="280" y="510" width="20" height="20" as="geometry" />
        </mxCell>
        <mxCell id="5wAvHKpj9pkWP0bOrU0t-124" value="0" style="rounded=0;whiteSpace=wrap;html=1;fillColor=#f5f5f5;gradientColor=#b3b3b3;strokeColor=#4D4D4D;" parent="1" vertex="1">
          <mxGeometry x="140" y="510" width="20" height="20" as="geometry" />
        </mxCell>
        <mxCell id="5wAvHKpj9pkWP0bOrU0t-127" value="&lt;font style=&quot;font-size: 10px;&quot;&gt;Ring-Buffer X &lt;b&gt;&lt;i&gt;(split work)&lt;/i&gt;&lt;/b&gt;&lt;/font&gt;" style="rounded=0;whiteSpace=wrap;html=1;fillColor=#d5e8d4;gradientColor=#97d077;strokeColor=#4D4D4D;" parent="1" vertex="1">
          <mxGeometry x="140" y="530" width="160" height="20" as="geometry" />
        </mxCell>
        <mxCell id="5wAvHKpj9pkWP0bOrU0t-129" value="&lt;span style=&quot;font-size: 8px; text-align: left;&quot;&gt;Analyse&lt;/span&gt;" style="rounded=0;whiteSpace=wrap;html=1;fillColor=#f5f5f5;gradientColor=#b3b3b3;strokeColor=#666666;" parent="1" vertex="1">
          <mxGeometry x="458.75" y="230" width="82.5" height="40" as="geometry" />
        </mxCell>
        <mxCell id="5wAvHKpj9pkWP0bOrU0t-130" value="Analysis" style="rounded=0;whiteSpace=wrap;html=1;fillColor=#d5e8d4;gradientColor=#97d077;strokeColor=#000000;" parent="1" vertex="1">
          <mxGeometry x="458.75" y="210" width="82.5" height="20" as="geometry" />
        </mxCell>
        <mxCell id="5wAvHKpj9pkWP0bOrU0t-149" value="" style="endArrow=none;dashed=1;html=1;dashPattern=1 3;strokeWidth=2;rounded=0;movable=0;resizable=0;rotatable=0;deletable=0;editable=0;locked=1;connectable=0;" parent="1" edge="1">
          <mxGeometry width="50" height="50" relative="1" as="geometry">
            <mxPoint x="172.38" y="724.5" as="sourcePoint" />
            <mxPoint x="620" y="725" as="targetPoint" />
          </mxGeometry>
        </mxCell>
        <mxCell id="5wAvHKpj9pkWP0bOrU0t-148" value="" style="endArrow=none;dashed=1;html=1;dashPattern=1 3;strokeWidth=2;rounded=0;movable=0;resizable=0;rotatable=0;deletable=0;editable=0;locked=1;connectable=0;" parent="1" edge="1">
          <mxGeometry width="50" height="50" relative="1" as="geometry">
            <mxPoint x="172.38" y="680" as="sourcePoint" />
            <mxPoint x="620" y="680" as="targetPoint" />
          </mxGeometry>
        </mxCell>
        <mxCell id="5wAvHKpj9pkWP0bOrU0t-134" value="1" style="rounded=0;whiteSpace=wrap;html=1;fillColor=#ffcd28;gradientColor=#ffa500;strokeColor=#33001A;gradientDirection=east;movable=1;resizable=1;rotatable=1;deletable=1;editable=1;locked=0;connectable=1;" parent="1" vertex="1">
          <mxGeometry x="192.38" y="660" width="60" height="40" as="geometry" />
        </mxCell>
        <mxCell id="5wAvHKpj9pkWP0bOrU0t-135" value="" style="endArrow=classic;html=1;rounded=0;movable=0;resizable=0;rotatable=0;deletable=0;editable=0;locked=1;connectable=0;" parent="1" edge="1">
          <mxGeometry width="50" height="50" relative="1" as="geometry">
            <mxPoint x="173.63" y="860" as="sourcePoint" />
            <mxPoint x="653.63" y="860" as="targetPoint" />
          </mxGeometry>
        </mxCell>
        <mxCell id="5wAvHKpj9pkWP0bOrU0t-136" value="Time" style="text;html=1;align=center;verticalAlign=middle;resizable=0;points=[];autosize=1;strokeColor=none;fillColor=none;movable=0;rotatable=0;deletable=0;editable=0;locked=1;connectable=0;" parent="1" vertex="1">
          <mxGeometry x="587.38" y="860" width="50" height="30" as="geometry" />
        </mxCell>
        <mxCell id="5wAvHKpj9pkWP0bOrU0t-137" value="CPU Core 1&lt;div&gt;&lt;font style=&quot;font-size: 10px;&quot;&gt;Thread 1&lt;/font&gt;&lt;i style=&quot;font-size: 8px;&quot;&gt;&amp;nbsp;(pinned)&lt;/i&gt;&lt;/div&gt;" style="text;html=1;align=center;verticalAlign=middle;resizable=0;points=[];autosize=1;strokeColor=none;fillColor=none;movable=0;rotatable=0;deletable=0;editable=0;locked=1;connectable=0;" parent="1" vertex="1">
          <mxGeometry x="67.38" y="660" width="100" height="40" as="geometry" />
        </mxCell>
        <mxCell id="5wAvHKpj9pkWP0bOrU0t-138" value="CPU Core 2&lt;div&gt;&lt;font style=&quot;font-size: 10px;&quot;&gt;Thread 2&amp;nbsp;&lt;/font&gt;&lt;i style=&quot;font-size: 8px;&quot;&gt;(pinned)&lt;/i&gt;&lt;/div&gt;" style="text;html=1;align=center;verticalAlign=middle;resizable=0;points=[];autosize=1;strokeColor=none;fillColor=none;movable=0;rotatable=0;deletable=0;editable=0;locked=1;connectable=0;" parent="1" vertex="1">
          <mxGeometry x="67.38" y="700" width="100" height="40" as="geometry" />
        </mxCell>
        <mxCell id="5wAvHKpj9pkWP0bOrU0t-139" value="2" style="rounded=0;whiteSpace=wrap;html=1;fillColor=#ffcd28;gradientColor=#ffa500;strokeColor=#33001A;gradientDirection=east;movable=1;resizable=1;rotatable=1;deletable=1;editable=1;locked=0;connectable=1;" parent="1" vertex="1">
          <mxGeometry x="272.38" y="660" width="50" height="40" as="geometry" />
        </mxCell>
        <mxCell id="5wAvHKpj9pkWP0bOrU0t-140" value="3" style="rounded=0;whiteSpace=wrap;html=1;fillColor=#ffcd28;gradientColor=#ffa500;strokeColor=#33001A;gradientDirection=east;movable=1;resizable=1;rotatable=1;deletable=1;editable=1;locked=0;connectable=1;" parent="1" vertex="1">
          <mxGeometry x="352.38" y="660" width="70" height="40" as="geometry" />
        </mxCell>
        <mxCell id="5wAvHKpj9pkWP0bOrU0t-141" value="4" style="rounded=0;whiteSpace=wrap;html=1;fillColor=#ffcd28;gradientColor=#ffa500;strokeColor=#33001A;gradientDirection=east;movable=1;resizable=1;rotatable=1;deletable=1;editable=1;locked=0;connectable=1;" parent="1" vertex="1">
          <mxGeometry x="432.38" y="660" width="40" height="40" as="geometry" />
        </mxCell>
        <mxCell id="5wAvHKpj9pkWP0bOrU0t-142" value="1" style="rounded=0;whiteSpace=wrap;html=1;fillColor=#d5e8d4;gradientColor=#97d077;strokeColor=#33001A;gradientDirection=east;movable=1;resizable=1;rotatable=1;deletable=1;editable=1;locked=0;connectable=1;" parent="1" vertex="1">
          <mxGeometry x="252.38" y="700" width="60" height="20" as="geometry" />
        </mxCell>
        <mxCell id="5wAvHKpj9pkWP0bOrU0t-145" value="3" style="rounded=0;whiteSpace=wrap;html=1;fillColor=#d5e8d4;gradientColor=#97d077;strokeColor=#33001A;gradientDirection=east;movable=1;resizable=1;rotatable=1;deletable=1;editable=1;locked=0;connectable=1;" parent="1" vertex="1">
          <mxGeometry x="422.38" y="700" width="110" height="20" as="geometry" />
        </mxCell>
        <mxCell id="5wAvHKpj9pkWP0bOrU0t-146" value="5" style="rounded=0;whiteSpace=wrap;html=1;fillColor=#ffcd28;gradientColor=#ffa500;strokeColor=#33001A;gradientDirection=east;movable=1;resizable=1;rotatable=1;deletable=1;editable=1;locked=0;connectable=1;" parent="1" vertex="1">
          <mxGeometry x="512.38" y="660" width="40" height="40" as="geometry" />
        </mxCell>
        <mxCell id="5wAvHKpj9pkWP0bOrU0t-150" value="" style="endArrow=none;html=1;rounded=0;movable=0;resizable=0;rotatable=0;deletable=0;editable=0;locked=1;connectable=0;" parent="1" edge="1">
          <mxGeometry width="50" height="50" relative="1" as="geometry">
            <mxPoint x="172.38" y="880" as="sourcePoint" />
            <mxPoint x="172.38" y="640" as="targetPoint" />
          </mxGeometry>
        </mxCell>
        <mxCell id="XTBzpI1Qbm_Vmd8OKEiI-1" value="" style="rounded=0;whiteSpace=wrap;html=1;fillColor=#e6d0de;gradientColor=#d5739d;strokeColor=#33001A;gradientDirection=east;movable=1;resizable=1;rotatable=1;deletable=1;editable=1;locked=0;connectable=1;" parent="1" vertex="1">
          <mxGeometry x="252.38" y="660" width="20" height="40" as="geometry" />
        </mxCell>
        <mxCell id="XTBzpI1Qbm_Vmd8OKEiI-3" value="" style="rounded=0;whiteSpace=wrap;html=1;fillColor=#e6d0de;gradientColor=#d5739d;strokeColor=#33001A;gradientDirection=east;movable=1;resizable=1;rotatable=1;deletable=1;editable=1;locked=0;connectable=1;" parent="1" vertex="1">
          <mxGeometry x="322.38" y="660" width="30" height="40" as="geometry" />
        </mxCell>
        <mxCell id="XTBzpI1Qbm_Vmd8OKEiI-4" value="" style="rounded=0;whiteSpace=wrap;html=1;fillColor=#e6d0de;gradientColor=#d5739d;strokeColor=#33001A;gradientDirection=east;movable=1;resizable=1;rotatable=1;deletable=1;editable=1;locked=0;connectable=1;" parent="1" vertex="1">
          <mxGeometry x="422.38" y="660" width="10" height="40" as="geometry" />
        </mxCell>
        <mxCell id="XTBzpI1Qbm_Vmd8OKEiI-5" value="" style="rounded=0;whiteSpace=wrap;html=1;fillColor=#e6d0de;gradientColor=#d5739d;strokeColor=#33001A;gradientDirection=east;movable=1;resizable=1;rotatable=1;deletable=1;editable=1;locked=0;connectable=1;" parent="1" vertex="1">
          <mxGeometry x="472.38" y="660" width="40" height="40" as="geometry" />
        </mxCell>
        <mxCell id="XTBzpI1Qbm_Vmd8OKEiI-6" value="" style="rounded=0;whiteSpace=wrap;html=1;fillColor=#e6d0de;gradientColor=#d5739d;strokeColor=#33001A;gradientDirection=east;movable=1;resizable=1;rotatable=1;deletable=1;editable=1;locked=0;connectable=1;" parent="1" vertex="1">
          <mxGeometry x="312.38" y="700" width="10" height="40" as="geometry" />
        </mxCell>
        <mxCell id="XTBzpI1Qbm_Vmd8OKEiI-7" value="" style="rounded=0;whiteSpace=wrap;html=1;fillColor=#e6d0de;gradientColor=#d5739d;strokeColor=#33001A;gradientDirection=east;movable=1;resizable=1;rotatable=1;deletable=1;editable=1;locked=0;connectable=1;" parent="1" vertex="1">
          <mxGeometry x="352.38" y="700" width="70" height="40" as="geometry" />
        </mxCell>
        <mxCell id="XTBzpI1Qbm_Vmd8OKEiI-8" value="" style="rounded=0;whiteSpace=wrap;html=1;fillColor=#e6d0de;gradientColor=#d5739d;strokeColor=#33001A;gradientDirection=east;movable=1;resizable=1;rotatable=1;deletable=1;editable=1;locked=0;connectable=1;" parent="1" vertex="1">
          <mxGeometry x="532.38" y="700" width="60" height="40" as="geometry" />
        </mxCell>
        <mxCell id="XTBzpI1Qbm_Vmd8OKEiI-9" value="" style="rounded=0;whiteSpace=wrap;html=1;fillColor=#e6d0de;gradientColor=#d5739d;strokeColor=#33001A;gradientDirection=east;movable=1;resizable=1;rotatable=1;deletable=1;editable=1;locked=0;connectable=1;" parent="1" vertex="1">
          <mxGeometry x="552.38" y="660" width="40" height="40" as="geometry" />
        </mxCell>
        <mxCell id="XTBzpI1Qbm_Vmd8OKEiI-10" value="" style="rounded=0;whiteSpace=wrap;html=1;fillColor=#e6d0de;gradientColor=#d5739d;strokeColor=#33001A;gradientDirection=east;movable=1;resizable=1;rotatable=1;deletable=1;editable=1;locked=0;connectable=1;" parent="1" vertex="1">
          <mxGeometry x="192.38" y="700" width="60" height="40" as="geometry" />
        </mxCell>
        <mxCell id="XTBzpI1Qbm_Vmd8OKEiI-51" value="4" style="rounded=0;whiteSpace=wrap;html=1;fillColor=#d5e8d4;gradientColor=#97d077;strokeColor=#33001A;gradientDirection=east;movable=1;resizable=1;rotatable=1;deletable=1;editable=1;locked=0;connectable=1;" parent="1" vertex="1">
          <mxGeometry x="472.38" y="740" width="40" height="20" as="geometry" />
        </mxCell>
        <mxCell id="XTBzpI1Qbm_Vmd8OKEiI-54" value="" style="rounded=0;whiteSpace=wrap;html=1;fillColor=#e6d0de;gradientColor=#d5739d;strokeColor=#33001A;gradientDirection=east;movable=1;resizable=1;rotatable=1;deletable=1;editable=1;locked=0;connectable=1;" parent="1" vertex="1">
          <mxGeometry x="532.38" y="740" width="60" height="40" as="geometry" />
        </mxCell>
        <mxCell id="XTBzpI1Qbm_Vmd8OKEiI-55" value="" style="rounded=0;whiteSpace=wrap;html=1;fillColor=#e6d0de;gradientColor=#d5739d;strokeColor=#33001A;gradientDirection=east;movable=1;resizable=1;rotatable=1;deletable=1;editable=1;locked=0;connectable=1;" parent="1" vertex="1">
          <mxGeometry x="192.38" y="740" width="280" height="40" as="geometry" />
        </mxCell>
        <mxCell id="5wAvHKpj9pkWP0bOrU0t-144" value="2" style="rounded=0;whiteSpace=wrap;html=1;fillColor=#d5e8d4;gradientColor=#97d077;strokeColor=#33001A;gradientDirection=east;movable=1;resizable=1;rotatable=1;deletable=1;editable=1;locked=0;connectable=1;" parent="1" vertex="1">
          <mxGeometry x="322.38" y="700" width="30" height="20" as="geometry" />
        </mxCell>
        <mxCell id="XTBzpI1Qbm_Vmd8OKEiI-60" value="Finish Commit Write &quot;D&quot;&lt;div&gt;Ring Buffer Z&lt;/div&gt;&lt;div style=&quot;font-size: 10px;&quot;&gt;&lt;b&gt;&lt;i&gt;&lt;font style=&quot;font-size: 10px;&quot;&gt;(proceeds immediately&lt;/font&gt;&lt;/i&gt;&lt;/b&gt;&lt;/div&gt;&lt;div style=&quot;font-size: 10px;&quot;&gt;&lt;b&gt;&lt;i&gt;&lt;font style=&quot;font-size: 10px;&quot;&gt;after&amp;nbsp;&lt;span style=&quot;background-color: initial;&quot;&gt;commit &quot;C&quot;&lt;/span&gt;&lt;/font&gt;&lt;/i&gt;&lt;/b&gt;&lt;/div&gt;&lt;div style=&quot;font-size: 10px;&quot;&gt;&lt;span style=&quot;background-color: initial;&quot;&gt;&lt;b&gt;&lt;i&gt;&lt;font style=&quot;font-size: 10px;&quot;&gt;finishes)&lt;/font&gt;&lt;/i&gt;&lt;/b&gt;&lt;/span&gt;&lt;/div&gt;" style="text;html=1;align=center;verticalAlign=middle;resizable=1;points=[];autosize=1;strokeColor=none;fillColor=none;movable=1;rotatable=1;deletable=1;editable=1;locked=0;connectable=1;" parent="1" vertex="1">
          <mxGeometry x="640" y="740" width="150" height="80" as="geometry" />
        </mxCell>
        <mxCell id="XTBzpI1Qbm_Vmd8OKEiI-64" style="edgeStyle=orthogonalEdgeStyle;rounded=0;orthogonalLoop=1;jettySize=auto;html=1;exitX=0.5;exitY=0;exitDx=0;exitDy=0;entryX=0.25;entryY=1;entryDx=0;entryDy=0;curved=1;fillColor=#d5e8d4;gradientColor=#97d077;strokeColor=#82b366;strokeWidth=2;" parent="1" source="5wAvHKpj9pkWP0bOrU0t-34" target="XTBzpI1Qbm_Vmd8OKEiI-68" edge="1">
          <mxGeometry relative="1" as="geometry">
            <mxPoint x="390" y="509.5" as="sourcePoint" />
          </mxGeometry>
        </mxCell>
        <mxCell id="XTBzpI1Qbm_Vmd8OKEiI-65" style="edgeStyle=orthogonalEdgeStyle;rounded=0;orthogonalLoop=1;jettySize=auto;html=1;exitX=0;exitY=0.25;exitDx=0;exitDy=0;entryX=0;entryY=0.5;entryDx=0;entryDy=0;fillColor=#d5e8d4;gradientColor=#97d077;strokeColor=#82b366;strokeWidth=2;curved=1;" parent="1" source="XTBzpI1Qbm_Vmd8OKEiI-66" edge="1">
          <mxGeometry relative="1" as="geometry">
            <Array as="points">
              <mxPoint x="420" y="334" />
              <mxPoint x="420" y="250" />
            </Array>
            <mxPoint x="458" y="249.5" as="targetPoint" />
          </mxGeometry>
        </mxCell>
        <mxCell id="XTBzpI1Qbm_Vmd8OKEiI-66" value="4" style="rounded=0;whiteSpace=wrap;html=1;fillColor=#d5e8d4;gradientColor=#97d077;strokeColor=#000000;" parent="1" vertex="1">
          <mxGeometry x="450" y="329.5" width="20" height="20" as="geometry" />
        </mxCell>
        <mxCell id="XTBzpI1Qbm_Vmd8OKEiI-67" style="edgeStyle=orthogonalEdgeStyle;rounded=0;orthogonalLoop=1;jettySize=auto;html=1;exitX=0;exitY=0.25;exitDx=0;exitDy=0;entryX=0;entryY=0.75;entryDx=0;entryDy=0;fillColor=#d5e8d4;gradientColor=#97d077;strokeColor=#82b366;curved=1;strokeWidth=2;" parent="1" source="XTBzpI1Qbm_Vmd8OKEiI-68" target="XTBzpI1Qbm_Vmd8OKEiI-66" edge="1">
          <mxGeometry relative="1" as="geometry">
            <Array as="points">
              <mxPoint x="420" y="415" />
              <mxPoint x="420" y="345" />
            </Array>
          </mxGeometry>
        </mxCell>
        <mxCell id="XTBzpI1Qbm_Vmd8OKEiI-68" value="4" style="rounded=0;whiteSpace=wrap;html=1;fillColor=#d5e8d4;gradientColor=#97d077;strokeColor=#000000;" parent="1" vertex="1">
          <mxGeometry x="450" y="409.5" width="20" height="20" as="geometry" />
        </mxCell>
        <mxCell id="wHG6oa4IupuvhH1mk3ex-1" value="CPU Core 3&lt;div&gt;&lt;font style=&quot;font-size: 10px;&quot;&gt;Thread 3&amp;nbsp;&lt;/font&gt;&lt;i style=&quot;font-size: 8px;&quot;&gt;(pinned)&lt;/i&gt;&lt;/div&gt;" style="text;html=1;align=center;verticalAlign=middle;resizable=0;points=[];autosize=1;strokeColor=none;fillColor=none;movable=0;rotatable=0;deletable=0;editable=0;locked=1;connectable=0;" parent="1" vertex="1">
          <mxGeometry x="67.38" y="740" width="100" height="40" as="geometry" />
        </mxCell>
        <mxCell id="WyfGocU0w-fGMWGtSDuY-1" value="CPU Core 4&lt;div&gt;&lt;br&gt;&lt;/div&gt;&lt;div&gt;&lt;br&gt;&lt;/div&gt;&lt;div&gt;&lt;br&gt;&lt;/div&gt;&lt;div&gt;&lt;br&gt;&lt;/div&gt;" style="rounded=0;whiteSpace=wrap;html=1;fillColor=#dae8fc;strokeColor=#6c8ebf;" vertex="1" parent="1">
          <mxGeometry x="600" y="158" width="120" height="120" as="geometry" />
        </mxCell>
        <mxCell id="WyfGocU0w-fGMWGtSDuY-2" style="edgeStyle=orthogonalEdgeStyle;rounded=0;orthogonalLoop=1;jettySize=auto;html=1;entryX=0.5;entryY=0;entryDx=0;entryDy=0;shape=flexArrow;fillColor=#d5e8d4;gradientColor=#97d077;strokeColor=#82b366;" edge="1" parent="1" target="WyfGocU0w-fGMWGtSDuY-3">
          <mxGeometry relative="1" as="geometry">
            <mxPoint x="660" y="278" as="sourcePoint" />
          </mxGeometry>
        </mxCell>
        <mxCell id="WyfGocU0w-fGMWGtSDuY-3" value="L1 Cache" style="rounded=0;whiteSpace=wrap;html=1;fillColor=#f8cecc;strokeColor=#b85450;" vertex="1" parent="1">
          <mxGeometry x="600" y="318" width="120" height="40" as="geometry" />
        </mxCell>
        <mxCell id="WyfGocU0w-fGMWGtSDuY-4" value="L2 Cache&lt;div&gt;(private)&lt;/div&gt;" style="rounded=0;whiteSpace=wrap;html=1;fillColor=#ffe6cc;strokeColor=#d79b00;" vertex="1" parent="1">
          <mxGeometry x="600" y="358" width="120" height="80" as="geometry" />
        </mxCell>
        <mxCell id="WyfGocU0w-fGMWGtSDuY-5" style="edgeStyle=orthogonalEdgeStyle;rounded=0;orthogonalLoop=1;jettySize=auto;html=1;entryX=0.1;entryY=0.025;entryDx=0;entryDy=0;entryPerimeter=0;shape=flexArrow;fillColor=#d5e8d4;gradientColor=#97d077;strokeColor=#82b366;" edge="1" parent="1" source="WyfGocU0w-fGMWGtSDuY-4">
          <mxGeometry relative="1" as="geometry">
            <mxPoint x="660" y="480" as="targetPoint" />
          </mxGeometry>
        </mxCell>
        <mxCell id="WyfGocU0w-fGMWGtSDuY-6" value="&lt;span style=&quot;font-size: 8px; text-align: left;&quot;&gt;Processing&lt;/span&gt;" style="rounded=0;whiteSpace=wrap;html=1;fillColor=#f5f5f5;gradientColor=#b3b3b3;strokeColor=#666666;" vertex="1" parent="1">
          <mxGeometry x="618.75" y="228" width="82.5" height="40" as="geometry" />
        </mxCell>
        <mxCell id="WyfGocU0w-fGMWGtSDuY-7" value="Processing" style="rounded=0;whiteSpace=wrap;html=1;fillColor=#d5e8d4;gradientColor=#97d077;strokeColor=#000000;" vertex="1" parent="1">
          <mxGeometry x="618.75" y="208" width="82.5" height="20" as="geometry" />
        </mxCell>
        <mxCell id="WyfGocU0w-fGMWGtSDuY-10" value="L3 Cache (shared)" style="text;align=center;verticalAlign=middle;resizable=0;points=[];autosize=1;strokeColor=none;fillColor=none;" vertex="1" parent="1">
          <mxGeometry x="600" y="530" width="120" height="30" as="geometry" />
        </mxCell>
        <mxCell id="WyfGocU0w-fGMWGtSDuY-20" value="E" style="rounded=0;whiteSpace=wrap;html=1;fillColor=#f5f5f5;gradientColor=#b3b3b3;strokeColor=#4D4D4D;" vertex="1" parent="1">
          <mxGeometry x="420" y="510" width="20" height="20" as="geometry" />
        </mxCell>
        <mxCell id="WyfGocU0w-fGMWGtSDuY-21" value="C" style="rounded=0;whiteSpace=wrap;html=1;fillColor=#BFFFC1;gradientColor=#ffa500;strokeColor=#4D4D4D;" vertex="1" parent="1">
          <mxGeometry x="380" y="510" width="20" height="20" as="geometry" />
        </mxCell>
        <mxCell id="WyfGocU0w-fGMWGtSDuY-22" value="D" style="rounded=0;whiteSpace=wrap;html=1;fillColor=#ffcd28;gradientColor=#ffa500;strokeColor=#4D4D4D;" vertex="1" parent="1">
          <mxGeometry x="400" y="510" width="20" height="20" as="geometry" />
        </mxCell>
        <mxCell id="WyfGocU0w-fGMWGtSDuY-23" value="F" style="rounded=0;whiteSpace=wrap;html=1;fillColor=#f5f5f5;gradientColor=#b3b3b3;strokeColor=#4D4D4D;" vertex="1" parent="1">
          <mxGeometry x="440" y="510" width="20" height="20" as="geometry" />
        </mxCell>
        <mxCell id="WyfGocU0w-fGMWGtSDuY-24" value="B" style="rounded=0;whiteSpace=wrap;html=1;fillColor=#f5f5f5;gradientColor=#b3b3b3;strokeColor=#4D4D4D;" vertex="1" parent="1">
          <mxGeometry x="360" y="510" width="20" height="20" as="geometry" />
        </mxCell>
        <mxCell id="WyfGocU0w-fGMWGtSDuY-25" value="G" style="rounded=0;whiteSpace=wrap;html=1;fillColor=#f5f5f5;gradientColor=#b3b3b3;strokeColor=#4D4D4D;" vertex="1" parent="1">
          <mxGeometry x="460" y="510" width="20" height="20" as="geometry" />
        </mxCell>
        <mxCell id="WyfGocU0w-fGMWGtSDuY-26" value="H" style="rounded=0;whiteSpace=wrap;html=1;fillColor=#f5f5f5;gradientColor=#b3b3b3;strokeColor=#4D4D4D;" vertex="1" parent="1">
          <mxGeometry x="480" y="510" width="20" height="20" as="geometry" />
        </mxCell>
        <mxCell id="WyfGocU0w-fGMWGtSDuY-27" value="A" style="rounded=0;whiteSpace=wrap;html=1;fillColor=#f5f5f5;gradientColor=#b3b3b3;strokeColor=#4D4D4D;" vertex="1" parent="1">
          <mxGeometry x="340" y="510" width="20" height="20" as="geometry" />
        </mxCell>
        <mxCell id="WyfGocU0w-fGMWGtSDuY-28" value="&lt;font style=&quot;font-size: 10px;&quot;&gt;Ring-Buffer Z &lt;b&gt;&lt;i&gt;(merge results)&lt;/i&gt;&lt;/b&gt;&lt;/font&gt;" style="rounded=0;whiteSpace=wrap;html=1;fillColor=#d5e8d4;gradientColor=#97d077;strokeColor=#4D4D4D;" vertex="1" parent="1">
          <mxGeometry x="340" y="530" width="160" height="20" as="geometry" />
        </mxCell>
        <mxCell id="WyfGocU0w-fGMWGtSDuY-29" value="CPU Core 4&lt;div&gt;&lt;font style=&quot;font-size: 10px;&quot;&gt;Thread 4&amp;nbsp;&lt;/font&gt;&lt;i style=&quot;font-size: 8px;&quot;&gt;(pinned)&lt;/i&gt;&lt;/div&gt;" style="text;html=1;align=center;verticalAlign=middle;resizable=0;points=[];autosize=1;strokeColor=none;fillColor=none;movable=0;rotatable=0;deletable=0;editable=0;locked=1;connectable=0;" vertex="1" parent="1">
          <mxGeometry x="67.38" y="780" width="100" height="40" as="geometry" />
        </mxCell>
        <mxCell id="WyfGocU0w-fGMWGtSDuY-31" value="" style="endArrow=none;dashed=1;html=1;dashPattern=1 3;strokeWidth=2;rounded=0;movable=0;resizable=0;rotatable=0;deletable=0;editable=0;locked=1;connectable=0;" edge="1" parent="1">
          <mxGeometry width="50" height="50" relative="1" as="geometry">
            <mxPoint x="172.38" y="800" as="sourcePoint" />
            <mxPoint x="620" y="801" as="targetPoint" />
          </mxGeometry>
        </mxCell>
        <mxCell id="WyfGocU0w-fGMWGtSDuY-32" value="A" style="rounded=0;whiteSpace=wrap;html=1;fillColor=#d5e8d4;gradientColor=#97d077;strokeColor=#33001A;gradientDirection=east;movable=1;resizable=1;rotatable=1;deletable=1;editable=1;locked=0;connectable=1;" vertex="1" parent="1">
          <mxGeometry x="312.38" y="780" width="30" height="40" as="geometry" />
        </mxCell>
        <mxCell id="WyfGocU0w-fGMWGtSDuY-33" value="B" style="rounded=0;whiteSpace=wrap;html=1;fillColor=#d5e8d4;gradientColor=#97d077;strokeColor=#33001A;gradientDirection=east;movable=1;resizable=1;rotatable=1;deletable=1;editable=1;locked=0;connectable=1;" vertex="1" parent="1">
          <mxGeometry x="352.38" y="780" width="30" height="40" as="geometry" />
        </mxCell>
        <mxCell id="WyfGocU0w-fGMWGtSDuY-36" value="C" style="rounded=0;whiteSpace=wrap;html=1;fillColor=#d5e8d4;gradientColor=#97d077;strokeColor=#33001A;gradientDirection=east;movable=1;resizable=1;rotatable=1;deletable=1;editable=1;locked=0;connectable=1;" vertex="1" parent="1">
          <mxGeometry x="532.38" y="780" width="30" height="40" as="geometry" />
        </mxCell>
        <mxCell id="WyfGocU0w-fGMWGtSDuY-37" value="D" style="rounded=0;whiteSpace=wrap;html=1;fillColor=#d5e8d4;gradientColor=#97d077;strokeColor=#33001A;gradientDirection=east;movable=1;resizable=1;rotatable=1;deletable=1;editable=1;locked=0;connectable=1;" vertex="1" parent="1">
          <mxGeometry x="562.38" y="780" width="30" height="40" as="geometry" />
        </mxCell>
        <mxCell id="WyfGocU0w-fGMWGtSDuY-38" value="" style="rounded=0;whiteSpace=wrap;html=1;fillColor=#e6d0de;gradientColor=#d5739d;strokeColor=#33001A;gradientDirection=east;movable=1;resizable=1;rotatable=1;deletable=1;editable=1;locked=0;connectable=1;" vertex="1" parent="1">
          <mxGeometry x="192.38" y="780" width="120" height="40" as="geometry" />
        </mxCell>
        <mxCell id="WyfGocU0w-fGMWGtSDuY-39" value="" style="rounded=0;whiteSpace=wrap;html=1;fillColor=#e6d0de;gradientColor=#d5739d;strokeColor=#33001A;gradientDirection=east;movable=1;resizable=1;rotatable=1;deletable=1;editable=1;locked=0;connectable=1;" vertex="1" parent="1">
          <mxGeometry x="342.38" y="780" width="10" height="40" as="geometry" />
        </mxCell>
        <mxCell id="WyfGocU0w-fGMWGtSDuY-40" value="" style="rounded=0;whiteSpace=wrap;html=1;fillColor=#e6d0de;gradientColor=#d5739d;strokeColor=#33001A;gradientDirection=east;movable=1;resizable=1;rotatable=1;deletable=1;editable=1;locked=0;connectable=1;" vertex="1" parent="1">
          <mxGeometry x="382.38" y="780" width="150" height="40" as="geometry" />
        </mxCell>
        <mxCell id="WyfGocU0w-fGMWGtSDuY-42" value="Reorder" style="text;html=1;align=center;verticalAlign=middle;resizable=1;points=[];autosize=1;strokeColor=none;fillColor=none;movable=1;rotatable=1;deletable=1;editable=1;locked=0;connectable=1;" vertex="1" parent="1">
          <mxGeometry x="532.38" y="880" width="55" height="30" as="geometry" />
        </mxCell>
        <mxCell id="WyfGocU0w-fGMWGtSDuY-44" value="" style="shape=waypoint;sketch=0;fillStyle=solid;size=6;pointerEvents=1;points=[];resizable=1;rotatable=1;perimeter=centerPerimeter;snapToPoint=1;strokeColor=#33001A;fillColor=#000000;movable=1;deletable=1;editable=1;locked=0;connectable=1;" vertex="1" parent="1">
          <mxGeometry x="539.88" y="810" width="15" height="20" as="geometry" />
        </mxCell>
        <mxCell id="WyfGocU0w-fGMWGtSDuY-45" value="" style="shape=waypoint;sketch=0;fillStyle=solid;size=6;pointerEvents=1;points=[];resizable=1;rotatable=1;perimeter=centerPerimeter;snapToPoint=1;strokeColor=#33001A;fillColor=#000000;movable=1;deletable=1;editable=1;locked=0;connectable=1;" vertex="1" parent="1">
          <mxGeometry x="567.38" y="810" width="20" height="20" as="geometry" />
        </mxCell>
        <mxCell id="WyfGocU0w-fGMWGtSDuY-53" value="A" style="rounded=0;whiteSpace=wrap;html=1;fillColor=#ffcd28;gradientColor=#ffa500;strokeColor=#33001A;gradientDirection=east;movable=1;resizable=1;rotatable=1;deletable=1;editable=1;locked=0;connectable=1;" vertex="1" parent="1">
          <mxGeometry x="252.38" y="720" width="60" height="20" as="geometry" />
        </mxCell>
        <mxCell id="WyfGocU0w-fGMWGtSDuY-46" style="rounded=0;orthogonalLoop=1;jettySize=auto;html=1;strokeWidth=1;dashed=1;strokeColor=#4D4D4D;movable=1;resizable=1;rotatable=1;deletable=1;editable=1;locked=0;connectable=1;" edge="1" parent="1" source="WyfGocU0w-fGMWGtSDuY-42" target="WyfGocU0w-fGMWGtSDuY-45">
          <mxGeometry relative="1" as="geometry">
            <mxPoint x="561.38" y="880" as="sourcePoint" />
            <mxPoint x="532.38" y="810" as="targetPoint" />
          </mxGeometry>
        </mxCell>
        <mxCell id="WyfGocU0w-fGMWGtSDuY-54" value="B" style="rounded=0;whiteSpace=wrap;html=1;fillColor=#ffcd28;gradientColor=#ffa500;strokeColor=#33001A;gradientDirection=east;movable=1;resizable=1;rotatable=1;deletable=1;editable=1;locked=0;connectable=1;" vertex="1" parent="1">
          <mxGeometry x="322.38" y="720" width="30" height="20" as="geometry" />
        </mxCell>
        <mxCell id="WyfGocU0w-fGMWGtSDuY-55" value="C" style="rounded=0;whiteSpace=wrap;html=1;fillColor=#ffcd28;gradientColor=#ffa500;strokeColor=#33001A;gradientDirection=east;movable=1;resizable=1;rotatable=1;deletable=1;editable=1;locked=0;connectable=1;" vertex="1" parent="1">
          <mxGeometry x="422.38" y="720" width="110" height="20" as="geometry" />
        </mxCell>
        <mxCell id="WyfGocU0w-fGMWGtSDuY-57" value="4" style="rounded=0;whiteSpace=wrap;html=1;fillColor=#dae8fc;gradientColor=#7ea6e0;strokeColor=#33001A;gradientDirection=east;movable=1;resizable=1;rotatable=1;deletable=1;editable=1;locked=0;connectable=1;" vertex="1" parent="1">
          <mxGeometry x="512.38" y="740" width="20" height="20" as="geometry" />
        </mxCell>
        <mxCell id="XTBzpI1Qbm_Vmd8OKEiI-62" value="" style="shape=waypoint;sketch=0;fillStyle=solid;size=6;pointerEvents=1;points=[];resizable=1;rotatable=1;perimeter=centerPerimeter;snapToPoint=1;strokeColor=#33001A;fillColor=#000000;movable=1;deletable=1;editable=1;locked=0;connectable=1;" parent="1" vertex="1">
          <mxGeometry x="522.38" y="760" width="20" height="20" as="geometry" />
        </mxCell>
        <mxCell id="XTBzpI1Qbm_Vmd8OKEiI-61" style="rounded=0;orthogonalLoop=1;jettySize=auto;html=1;strokeWidth=1;dashed=1;strokeColor=#4D4D4D;movable=1;resizable=1;rotatable=1;deletable=1;editable=1;locked=0;connectable=1;entryX=0.5;entryY=0.5;entryDx=0;entryDy=0;entryPerimeter=0;" parent="1" source="XTBzpI1Qbm_Vmd8OKEiI-60" target="XTBzpI1Qbm_Vmd8OKEiI-62" edge="1">
          <mxGeometry relative="1" as="geometry">
            <mxPoint x="422.38" y="890" as="sourcePoint" />
            <mxPoint x="522.38" y="760" as="targetPoint" />
          </mxGeometry>
        </mxCell>
        <mxCell id="WyfGocU0w-fGMWGtSDuY-43" style="rounded=0;orthogonalLoop=1;jettySize=auto;html=1;strokeWidth=1;dashed=1;strokeColor=#4D4D4D;movable=1;resizable=1;rotatable=1;deletable=1;editable=1;locked=0;connectable=1;" edge="1" parent="1" source="WyfGocU0w-fGMWGtSDuY-42" target="WyfGocU0w-fGMWGtSDuY-44">
          <mxGeometry relative="1" as="geometry">
            <mxPoint x="444.38" y="880" as="sourcePoint" />
            <mxPoint x="532.38" y="770" as="targetPoint" />
          </mxGeometry>
        </mxCell>
        <mxCell id="WyfGocU0w-fGMWGtSDuY-64" value="C" style="rounded=0;whiteSpace=wrap;html=1;fillColor=#ffcd28;gradientColor=#ffa500;strokeColor=#000000;" vertex="1" parent="1">
          <mxGeometry x="370" y="410" width="20" height="20" as="geometry" />
        </mxCell>
        <mxCell id="WyfGocU0w-fGMWGtSDuY-65" value="C" style="rounded=0;whiteSpace=wrap;html=1;fillColor=#ffcd28;gradientColor=#ffa500;strokeColor=#000000;" vertex="1" parent="1">
          <mxGeometry x="370" y="329.5" width="20" height="20" as="geometry" />
        </mxCell>
        <mxCell id="WyfGocU0w-fGMWGtSDuY-66" value="D" style="rounded=0;whiteSpace=wrap;html=1;fillColor=#ffcd28;gradientColor=#ffa500;strokeColor=#000000;" vertex="1" parent="1">
          <mxGeometry x="530" y="330" width="20" height="20" as="geometry" />
        </mxCell>
        <mxCell id="WyfGocU0w-fGMWGtSDuY-67" value="D" style="rounded=0;whiteSpace=wrap;html=1;fillColor=#ffcd28;gradientColor=#ffa500;strokeColor=#000000;" vertex="1" parent="1">
          <mxGeometry x="530" y="407.5" width="20" height="20" as="geometry" />
        </mxCell>
        <mxCell id="WyfGocU0w-fGMWGtSDuY-68" value="" style="endArrow=classic;html=1;rounded=0;exitX=1;exitY=0.75;exitDx=0;exitDy=0;strokeWidth=2;fillColor=#ffcd28;gradientColor=#ffa500;strokeColor=#d79b00;edgeStyle=orthogonalEdgeStyle;curved=1;entryX=1;entryY=0.25;entryDx=0;entryDy=0;" edge="1" parent="1" source="WyfGocU0w-fGMWGtSDuY-66" target="WyfGocU0w-fGMWGtSDuY-67">
          <mxGeometry width="50" height="50" relative="1" as="geometry">
            <mxPoint x="600" y="340" as="sourcePoint" />
            <mxPoint x="580" y="420" as="targetPoint" />
            <Array as="points">
              <mxPoint x="580" y="345" />
              <mxPoint x="580" y="413" />
              <mxPoint x="550" y="413" />
            </Array>
          </mxGeometry>
        </mxCell>
        <mxCell id="WyfGocU0w-fGMWGtSDuY-69" value="" style="endArrow=classic;html=1;rounded=0;exitX=1;exitY=0.5;exitDx=0;exitDy=0;strokeWidth=2;fillColor=#ffcd28;gradientColor=#ffa500;strokeColor=#d79b00;edgeStyle=orthogonalEdgeStyle;curved=1;entryX=1;entryY=0.25;entryDx=0;entryDy=0;" edge="1" parent="1" source="5wAvHKpj9pkWP0bOrU0t-129" target="WyfGocU0w-fGMWGtSDuY-66">
          <mxGeometry width="50" height="50" relative="1" as="geometry">
            <mxPoint x="550" y="257" as="sourcePoint" />
            <mxPoint x="550" y="330" as="targetPoint" />
            <Array as="points">
              <mxPoint x="580" y="250" />
              <mxPoint x="580" y="335" />
            </Array>
          </mxGeometry>
        </mxCell>
        <mxCell id="WyfGocU0w-fGMWGtSDuY-71" value="Begin Write Transaction &quot;D&quot;&lt;div&gt;&lt;div&gt;Ring Buffer Z&lt;/div&gt;&lt;/div&gt;&lt;div&gt;&lt;b&gt;&lt;i&gt;&lt;font style=&quot;font-size: 10px;&quot;&gt;(reserves slot &quot;D&quot;)&lt;/font&gt;&lt;/i&gt;&lt;/b&gt;&lt;/div&gt;" style="text;html=1;align=center;verticalAlign=middle;resizable=1;points=[];autosize=1;strokeColor=none;fillColor=none;movable=1;rotatable=1;deletable=1;editable=1;locked=0;connectable=1;" vertex="1" parent="1">
          <mxGeometry x="230" y="920" width="170" height="60" as="geometry" />
        </mxCell>
        <mxCell id="WyfGocU0w-fGMWGtSDuY-72" style="rounded=0;orthogonalLoop=1;jettySize=auto;html=1;strokeWidth=1;dashed=1;strokeColor=#4D4D4D;movable=1;resizable=1;rotatable=1;deletable=1;editable=1;locked=0;connectable=1;" edge="1" parent="1" source="WyfGocU0w-fGMWGtSDuY-71" target="XTBzpI1Qbm_Vmd8OKEiI-59">
          <mxGeometry relative="1" as="geometry">
            <mxPoint x="302.38" y="880" as="sourcePoint" />
            <mxPoint x="462.38" y="840" as="targetPoint" />
          </mxGeometry>
        </mxCell>
        <mxCell id="WyfGocU0w-fGMWGtSDuY-75" value="Begin Commit Write &quot;D&quot;&lt;div&gt;Ring Buffer Z&lt;/div&gt;&lt;div style=&quot;font-size: 10px;&quot;&gt;&lt;b style=&quot;&quot;&gt;&lt;i style=&quot;&quot;&gt;&lt;font style=&quot;font-size: 10px;&quot;&gt;(waits until&amp;nbsp;&lt;/font&gt;&lt;/i&gt;&lt;/b&gt;&lt;b style=&quot;background-color: initial;&quot;&gt;&lt;i&gt;slot &quot;C&quot;&lt;/i&gt;&lt;/b&gt;&lt;/div&gt;&lt;div style=&quot;font-size: 10px;&quot;&gt;&lt;b style=&quot;background-color: initial;&quot;&gt;&lt;i&gt;is committed)&lt;/i&gt;&lt;/b&gt;&lt;/div&gt;" style="text;html=1;align=center;verticalAlign=middle;resizable=1;points=[];autosize=1;strokeColor=none;fillColor=none;movable=1;rotatable=1;deletable=1;editable=1;locked=0;connectable=1;" vertex="1" parent="1">
          <mxGeometry x="400" y="920" width="150" height="70" as="geometry" />
        </mxCell>
        <mxCell id="WyfGocU0w-fGMWGtSDuY-77" value="D" style="rounded=0;whiteSpace=wrap;html=1;fillColor=#ffcd28;gradientColor=#ffa500;strokeColor=#33001A;gradientDirection=east;movable=1;resizable=1;rotatable=1;deletable=1;editable=1;locked=0;connectable=1;" vertex="1" parent="1">
          <mxGeometry x="472.38" y="760" width="40" height="20" as="geometry" />
        </mxCell>
        <mxCell id="WyfGocU0w-fGMWGtSDuY-76" style="rounded=0;orthogonalLoop=1;jettySize=auto;html=1;strokeWidth=1;dashed=1;strokeColor=#4D4D4D;movable=1;resizable=1;rotatable=1;deletable=1;editable=1;locked=0;connectable=1;" edge="1" parent="1" source="WyfGocU0w-fGMWGtSDuY-75" target="WyfGocU0w-fGMWGtSDuY-74">
          <mxGeometry relative="1" as="geometry">
            <mxPoint x="723.38" y="929" as="sourcePoint" />
            <mxPoint x="622.38" y="915" as="targetPoint" />
          </mxGeometry>
        </mxCell>
        <mxCell id="WyfGocU0w-fGMWGtSDuY-74" value="" style="shape=waypoint;sketch=0;fillStyle=solid;size=6;pointerEvents=1;points=[];resizable=1;rotatable=1;perimeter=centerPerimeter;snapToPoint=1;strokeColor=#33001A;fillColor=#000000;movable=1;deletable=1;editable=1;locked=0;connectable=1;" vertex="1" parent="1">
          <mxGeometry x="502.38" y="760" width="20" height="20" as="geometry" />
        </mxCell>
        <mxCell id="XTBzpI1Qbm_Vmd8OKEiI-59" value="" style="shape=waypoint;sketch=0;fillStyle=solid;size=6;pointerEvents=1;points=[];resizable=1;rotatable=1;perimeter=centerPerimeter;snapToPoint=1;strokeColor=#33001A;fillColor=#000000;movable=1;deletable=1;editable=1;locked=0;connectable=1;" parent="1" vertex="1">
          <mxGeometry x="462.38" y="760" width="20" height="20" as="geometry" />
        </mxCell>
        <mxCell id="WyfGocU0w-fGMWGtSDuY-78" value="Commit Write &quot;C&quot;&lt;div&gt;Ring Buffer Z&lt;/div&gt;&lt;div style=&quot;font-size: 10px;&quot;&gt;&lt;b&gt;&lt;i&gt;&lt;font style=&quot;font-size: 10px;&quot;&gt;(commits slot &quot;C&quot;&lt;/font&gt;&lt;/i&gt;&lt;/b&gt;&lt;/div&gt;&lt;div style=&quot;font-size: 10px;&quot;&gt;&lt;b&gt;&lt;i&gt;&lt;font style=&quot;font-size: 10px;&quot;&gt;and&amp;nbsp;&lt;/font&gt;&lt;/i&gt;&lt;/b&gt;&lt;b style=&quot;background-color: initial;&quot;&gt;&lt;i&gt;releases slot &quot;D&quot;&lt;/i&gt;&lt;/b&gt;&lt;/div&gt;&lt;div style=&quot;font-size: 10px;&quot;&gt;&lt;b&gt;&lt;i&gt;&lt;font style=&quot;font-size: 10px;&quot;&gt;for commit)&lt;/font&gt;&lt;/i&gt;&lt;/b&gt;&lt;/div&gt;" style="text;html=1;align=center;verticalAlign=middle;resizable=1;points=[];autosize=1;strokeColor=none;fillColor=none;movable=1;rotatable=1;deletable=1;editable=1;locked=0;connectable=1;" vertex="1" parent="1">
          <mxGeometry x="640" y="660" width="120" height="80" as="geometry" />
        </mxCell>
        <mxCell id="WyfGocU0w-fGMWGtSDuY-79" style="rounded=0;orthogonalLoop=1;jettySize=auto;html=1;strokeWidth=1;dashed=1;strokeColor=#4D4D4D;movable=1;resizable=1;rotatable=1;deletable=1;editable=1;locked=0;connectable=1;entryX=0.591;entryY=0.373;entryDx=0;entryDy=0;entryPerimeter=0;" edge="1" parent="1" source="WyfGocU0w-fGMWGtSDuY-78" target="WyfGocU0w-fGMWGtSDuY-80">
          <mxGeometry relative="1" as="geometry">
            <mxPoint x="682.38" y="752" as="sourcePoint" />
            <mxPoint x="582.38" y="740" as="targetPoint" />
          </mxGeometry>
        </mxCell>
        <mxCell id="WyfGocU0w-fGMWGtSDuY-80" value="" style="shape=waypoint;sketch=0;fillStyle=solid;size=6;pointerEvents=1;points=[];resizable=1;rotatable=1;perimeter=centerPerimeter;snapToPoint=1;strokeColor=#33001A;fillColor=#000000;movable=1;deletable=1;editable=1;locked=0;connectable=1;" vertex="1" parent="1">
          <mxGeometry x="522.38" y="720" width="20" height="20" as="geometry" />
        </mxCell>
        <mxCell id="WyfGocU0w-fGMWGtSDuY-82" value="" style="endArrow=classic;html=1;rounded=0;exitX=1;exitY=0.75;exitDx=0;exitDy=0;strokeWidth=2;fillColor=#ffcd28;gradientColor=#ffa500;strokeColor=#d79b00;edgeStyle=orthogonalEdgeStyle;curved=1;entryX=1;entryY=0.5;entryDx=0;entryDy=0;" edge="1" parent="1" source="WyfGocU0w-fGMWGtSDuY-65" target="WyfGocU0w-fGMWGtSDuY-64">
          <mxGeometry width="50" height="50" relative="1" as="geometry">
            <mxPoint x="390" y="350" as="sourcePoint" />
            <mxPoint x="390" y="418" as="targetPoint" />
            <Array as="points">
              <mxPoint x="410" y="345" />
              <mxPoint x="410" y="420" />
            </Array>
          </mxGeometry>
        </mxCell>
        <mxCell id="WyfGocU0w-fGMWGtSDuY-83" value="" style="endArrow=classic;html=1;rounded=0;strokeWidth=2;fillColor=#ffcd28;gradientColor=#ffa500;strokeColor=#d79b00;edgeStyle=orthogonalEdgeStyle;curved=1;entryX=1;entryY=0.25;entryDx=0;entryDy=0;" edge="1" parent="1" source="5wAvHKpj9pkWP0bOrU0t-42" target="WyfGocU0w-fGMWGtSDuY-65">
          <mxGeometry width="50" height="50" relative="1" as="geometry">
            <mxPoint x="381" y="250" as="sourcePoint" />
            <mxPoint x="390" y="335" as="targetPoint" />
            <Array as="points">
              <mxPoint x="410" y="250" />
              <mxPoint x="410" y="334" />
            </Array>
          </mxGeometry>
        </mxCell>
        <mxCell id="WyfGocU0w-fGMWGtSDuY-85" value="C" style="rounded=0;whiteSpace=wrap;html=1;fillColor=#d5e8d4;gradientColor=#97d077;strokeColor=#000000;" vertex="1" parent="1">
          <mxGeometry x="610" y="407.5" width="20" height="20" as="geometry" />
        </mxCell>
        <mxCell id="WyfGocU0w-fGMWGtSDuY-86" value="C" style="rounded=0;whiteSpace=wrap;html=1;fillColor=#d5e8d4;gradientColor=#97d077;strokeColor=#000000;" vertex="1" parent="1">
          <mxGeometry x="610" y="328" width="20" height="20" as="geometry" />
        </mxCell>
        <mxCell id="WyfGocU0w-fGMWGtSDuY-87" style="edgeStyle=orthogonalEdgeStyle;rounded=0;orthogonalLoop=1;jettySize=auto;html=1;exitX=0;exitY=0.5;exitDx=0;exitDy=0;entryX=0;entryY=0.75;entryDx=0;entryDy=0;fillColor=#d5e8d4;gradientColor=#97d077;strokeColor=#82b366;curved=1;strokeWidth=2;dashed=1;" edge="1" parent="1" source="WyfGocU0w-fGMWGtSDuY-85" target="WyfGocU0w-fGMWGtSDuY-86">
          <mxGeometry relative="1" as="geometry">
            <Array as="points">
              <mxPoint x="590" y="418" />
              <mxPoint x="590" y="343" />
            </Array>
            <mxPoint x="610" y="418" as="sourcePoint" />
            <mxPoint x="610" y="348" as="targetPoint" />
          </mxGeometry>
        </mxCell>
        <mxCell id="WyfGocU0w-fGMWGtSDuY-88" style="edgeStyle=orthogonalEdgeStyle;rounded=0;orthogonalLoop=1;jettySize=auto;html=1;exitX=0;exitY=0.25;exitDx=0;exitDy=0;entryX=0;entryY=0.5;entryDx=0;entryDy=0;fillColor=#d5e8d4;gradientColor=#97d077;strokeColor=#82b366;strokeWidth=2;curved=1;dashed=1;" edge="1" parent="1" source="WyfGocU0w-fGMWGtSDuY-86">
          <mxGeometry relative="1" as="geometry">
            <Array as="points">
              <mxPoint x="590" y="333" />
              <mxPoint x="590" y="250" />
            </Array>
            <mxPoint x="618.75" y="250" as="targetPoint" />
            <mxPoint x="610.75" y="335.5" as="sourcePoint" />
          </mxGeometry>
        </mxCell>
        <mxCell id="WyfGocU0w-fGMWGtSDuY-90" style="edgeStyle=orthogonalEdgeStyle;rounded=0;orthogonalLoop=1;jettySize=auto;html=1;exitX=0.5;exitY=0;exitDx=0;exitDy=0;entryX=0.5;entryY=1;entryDx=0;entryDy=0;curved=1;fillColor=#d5e8d4;gradientColor=#97d077;strokeColor=#82b366;strokeWidth=2;dashed=1;" edge="1" parent="1" source="WyfGocU0w-fGMWGtSDuY-21" target="WyfGocU0w-fGMWGtSDuY-85">
          <mxGeometry relative="1" as="geometry">
            <mxPoint x="393.25" y="507.5" as="sourcePoint" />
            <mxPoint x="618.25" y="427.5" as="targetPoint" />
            <Array as="points">
              <mxPoint x="390" y="490" />
              <mxPoint x="620" y="490" />
            </Array>
          </mxGeometry>
        </mxCell>
        <mxCell id="WyfGocU0w-fGMWGtSDuY-70" style="edgeStyle=orthogonalEdgeStyle;rounded=0;orthogonalLoop=1;jettySize=auto;html=1;entryX=0.5;entryY=0;entryDx=0;entryDy=0;curved=1;strokeWidth=2;fillColor=#ffcd28;gradientColor=#ffa500;strokeColor=#d79b00;exitX=0.5;exitY=1;exitDx=0;exitDy=0;" edge="1" parent="1" source="WyfGocU0w-fGMWGtSDuY-67" target="WyfGocU0w-fGMWGtSDuY-22">
          <mxGeometry relative="1" as="geometry">
            <Array as="points">
              <mxPoint x="540" y="460" />
              <mxPoint x="410" y="460" />
            </Array>
            <mxPoint x="530" y="460" as="sourcePoint" />
            <mxPoint x="594.98" y="582.5" as="targetPoint" />
          </mxGeometry>
        </mxCell>
        <mxCell id="WyfGocU0w-fGMWGtSDuY-81" style="edgeStyle=orthogonalEdgeStyle;rounded=0;orthogonalLoop=1;jettySize=auto;html=1;entryX=0.5;entryY=0;entryDx=0;entryDy=0;curved=1;strokeWidth=2;fillColor=#ffcd28;gradientColor=#ffa500;strokeColor=#d79b00;exitX=0;exitY=0.5;exitDx=0;exitDy=0;" edge="1" parent="1" source="WyfGocU0w-fGMWGtSDuY-64" target="WyfGocU0w-fGMWGtSDuY-21">
          <mxGeometry relative="1" as="geometry">
            <Array as="points">
              <mxPoint x="360" y="420" />
              <mxPoint x="360" y="470" />
              <mxPoint x="390" y="470" />
            </Array>
            <mxPoint x="550" y="438" as="sourcePoint" />
            <mxPoint x="420" y="520" as="targetPoint" />
          </mxGeometry>
        </mxCell>
        <mxCell id="WyfGocU0w-fGMWGtSDuY-91" value="Begin Write Transaction &quot;C&quot;&lt;div&gt;&lt;div&gt;Ring Buffer Z&lt;/div&gt;&lt;/div&gt;&lt;div&gt;&lt;b&gt;&lt;i&gt;&lt;font style=&quot;font-size: 10px;&quot;&gt;(reserves slot &quot;C&quot;)&lt;/font&gt;&lt;/i&gt;&lt;/b&gt;&lt;/div&gt;" style="text;html=1;align=center;verticalAlign=middle;resizable=1;points=[];autosize=1;strokeColor=none;fillColor=none;movable=1;rotatable=1;deletable=1;editable=1;locked=0;connectable=1;" vertex="1" parent="1">
          <mxGeometry x="182.38" y="865" width="170" height="60" as="geometry" />
        </mxCell>
        <mxCell id="WyfGocU0w-fGMWGtSDuY-92" value="" style="shape=waypoint;sketch=0;fillStyle=solid;size=6;pointerEvents=1;points=[];resizable=1;rotatable=1;perimeter=centerPerimeter;snapToPoint=1;strokeColor=#33001A;fillColor=#000000;movable=1;deletable=1;editable=1;locked=0;connectable=1;" vertex="1" parent="1">
          <mxGeometry x="412.38" y="720" width="20" height="20" as="geometry" />
        </mxCell>
        <mxCell id="WyfGocU0w-fGMWGtSDuY-93" style="rounded=0;orthogonalLoop=1;jettySize=auto;html=1;strokeWidth=1;dashed=1;strokeColor=#4D4D4D;movable=1;resizable=1;rotatable=1;deletable=1;editable=1;locked=0;connectable=1;" edge="1" parent="1" source="WyfGocU0w-fGMWGtSDuY-91" target="WyfGocU0w-fGMWGtSDuY-92">
          <mxGeometry relative="1" as="geometry">
            <mxPoint x="392" y="890" as="sourcePoint" />
            <mxPoint x="482" y="780" as="targetPoint" />
          </mxGeometry>
        </mxCell>
      </root>
    </mxGraphModel>
  </diagram>
</mxfile>
